<svg xmlns="http://www.w3.org/2000/svg" width="197.487" height="68.033" viewBox="0 0 197.487 68.033"><defs><style>.a{fill:#fff;}</style></defs><g transform="translate(0 0)"><path class="a" d="M23.916,47.831V41.852A17.937,17.937,0,1,1,41.852,23.916h5.979A23.916,23.916,0,1,0,23.916,47.831Zm12.105,3.292c11.392,6.688,4.42-9.251-12.089-9.271v5.979A23.888,23.888,0,0,1,36.021,51.123ZM23.928,41.852h0M12.269,23.6A11.959,11.959,0,0,0,23.916,35.873a11.962,11.962,0,0,0,0-23.916A11.958,11.958,0,0,0,12.269,23.6Zm17.626.319a5.983,5.983,0,1,1,0-.008Z" transform="translate(22.298) rotate(25)"/><path class="a" d="M12.3,2.839l5.109-8.829h6.7L15.9,7.228,24.38,20.844H17.733l-5.357-9.176L7.044,20.844H.348L8.83,7.228.646-5.991H7.292Zm28.182-18.1L50.9,12.412,61.292-15.266H69.4v36.11h-6.25V8.939l.62-15.922L53.108,20.844H48.619L37.98-6.958l.62,15.9v11.9H32.35v-36.11ZM91.607,21.34a12.468,12.468,0,0,1-9.288-3.608,13.09,13.09,0,0,1-3.559-9.61V7.377A16.1,16.1,0,0,1,80.311.2a11.8,11.8,0,0,1,4.353-4.923,11.507,11.507,0,0,1,6.25-1.761q5.481,0,8.469,3.5t2.988,9.9v2.43H84.837a8.059,8.059,0,0,0,2.22,5.258,6.664,6.664,0,0,0,4.9,1.934A8.16,8.16,0,0,0,98.7,13.18l3.249,3.1a10.849,10.849,0,0,1-4.3,3.732A13.471,13.471,0,0,1,91.607,21.34ZM90.888-1.65A5.075,5.075,0,0,0,86.883.086a9,9,0,0,0-1.947,4.836H96.419V4.475A7.325,7.325,0,0,0,94.807-.1,5.036,5.036,0,0,0,90.888-1.65Zm18.585,8.879q0-6.2,2.877-9.957a9.218,9.218,0,0,1,7.713-3.757,8.759,8.759,0,0,1,6.895,2.976V-17.25h6.027V20.844h-5.456l-.3-2.778a8.884,8.884,0,0,1-7.217,3.274,9.166,9.166,0,0,1-7.626-3.794Q109.473,13.751,109.473,7.228Zm6.027.521a11.17,11.17,0,0,0,1.575,6.386,5.11,5.11,0,0,0,4.477,2.294,5.691,5.691,0,0,0,5.407-3.3V1.673A5.6,5.6,0,0,0,121.6-1.551,5.148,5.148,0,0,0,117.087.768Q115.5,3.087,115.5,7.749Z" transform="translate(64.503 33.923)"/></g></svg>