<svg xmlns="http://www.w3.org/2000/svg" width="91.018" height="31.008" viewBox="0 0 91.018 31.008"><defs><style>.a,.b{fill:#0ccb97;}.b{font-size:23px;font-family:SegoeUI, Segoe UI;letter-spacing:0.07em;}</style></defs><g transform="translate(-14.982 -24)"><path class="a" d="M10.83,21.659V18.952a8.122,8.122,0,1,1,8.122-8.122h2.707a10.83,10.83,0,1,0-10.83,10.83Zm5.482,1.491c5.159,3.029,2-4.189-5.474-4.2v2.707A10.817,10.817,0,0,1,16.311,23.15Zm-5.476-4.2h0M5.556,10.689a5.415,5.415,0,0,0,5.274,5.556,5.417,5.417,0,0,0,0-10.83,5.415,5.415,0,0,0-5.274,5.274Zm7.981.144A2.707,2.707,0,1,1,10.83,8.122a2.708,2.708,0,0,1,2.707,2.711Z" transform="translate(25.079 24.2) rotate(25)"/><text class="b" transform="translate(44 49)"><tspan x="0" y="0">xMed</tspan></text></g></svg>