<svg xmlns="http://www.w3.org/2000/svg" width="26.56" height="26.56" viewBox="0 0 26.56 26.56"><defs><style>.a{fill:#0ccb97;}</style></defs><path class="a" d="M27.28,9.573a.555.555,0,0,0-.553-.553H19.533a.555.555,0,0,1-.553-.553V1.273A.555.555,0,0,0,18.427.72H9.573a.555.555,0,0,0-.553.553V8.467a.555.555,0,0,1-.553.553H1.273a.555.555,0,0,0-.553.553v8.853a.555.555,0,0,0,.553.553H8.467a.555.555,0,0,1,.553.553v7.193a.555.555,0,0,0,.553.553h8.853a.555.555,0,0,0,.553-.553V19.533a.555.555,0,0,1,.553-.553h7.193a.555.555,0,0,0,.553-.553Z" transform="translate(-0.72 -0.72)"/></svg>