<svg xmlns="http://www.w3.org/2000/svg" width="21.008" height="25" viewBox="0 0 21.008 25"><defs><style>.a{fill:#fff;}</style></defs><path class="a" d="M17.846,15.461a5.21,5.21,0,0,1,2.791-4.733,6,6,0,0,0-4.727-2.489c-1.981-.156-4.147,1.155-4.94,1.155-.837,0-2.757-1.1-4.264-1.1C3.591,8.345.281,10.778.281,15.729a13.911,13.911,0,0,0,.8,4.532c.714,2.048,3.293,7.072,5.983,6.988,1.407-.033,2.4-1,4.231-1,1.775,0,2.7,1,4.264,1,2.713-.039,5.046-4.6,5.726-6.659a5.533,5.533,0,0,1-3.444-5.129ZM14.687,6.3a5.257,5.257,0,0,0,1.34-4.046A5.918,5.918,0,0,0,12.237,4.2a5.339,5.339,0,0,0-1.429,4.013A4.688,4.688,0,0,0,14.687,6.3Z" transform="translate(-0.281 -2.25)"/></svg>